<?xml version="1.0" encoding="utf-8"?>
<!-- Generator: Adobe Illustrator 23.1.0, SVG Export Plug-In . SVG Version: 6.00 Build 0)  -->
<svg version="1.1" id="Layer_1" xmlns="http://www.w3.org/2000/svg" xmlns:xlink="http://www.w3.org/1999/xlink" x="0px" y="0px"
	 viewBox="0 0 43 44" style="enable-background:new 0 0 43 44;" xml:space="preserve">
<style type="text/css">
	.st0{fill-rule:evenodd;clip-rule:evenodd;fill:#FFFFFF;}
</style>
<title>MEW LOGO</title>
<desc>Created with Sketch.</desc>
<g id="New-Mocks">
	<g id="Artboard-5" transform="translate(-1052.000000, -409.000000)">
		<g id="MEW-LOGO" transform="translate(1052.000000, 409.000000)">
			<path id="Shape" class="st0" d="M11.5,10.1c-2.7,0-4.9-2.3-4.9-5.1s2.2-5,4.9-5s4.9,2.3,4.9,5.1S14.2,10.1,11.5,10.1z M31,10.1
				c-2.7,0-4.9-2.3-4.9-5.1s2.2-5,4.9-5s5,2.3,5,5.1S33.7,10.1,31,10.1z M43,41.6c-0.1,1.3-1.1,2.4-2.4,2.4c-1.3,0-2.4-1.1-2.4-2.5
				c0-0.2,0-0.4,0.1-0.6V25.4c0-4.1-3.2-7.4-7.1-7.4s-7.1,3.3-7.1,7.4v16.2l0,0C24,43,22.9,44,21.6,44s-2.4-1.1-2.5-2.4l0,0V25.4
				c0-4.1-3.2-7.4-7.1-7.4s-7.1,3.3-7.1,7.4v15.5c0,0.2,0.1,0.4,0.1,0.6C5,42.9,3.9,44,2.6,44s-2.4-1.1-2.4-2.4l0,0V24.9
				C0,18,5.3,12.5,11.9,12.5c4,0,7.5,2.1,9.6,5.2c2.2-3.1,5.7-5.2,9.6-5.2C37.7,12.5,43,18,43,24.9V41.6L43,41.6z"/>
		</g>
	</g>
</g>
</svg>
