<svg xmlns="http://www.w3.org/2000/svg" width="41.874" height="55.285" viewBox="0 0 41.874 55.285">
  <g id="clipboard-with-a-list" transform="translate(-58.908)">
    <g id="Group_954" data-name="Group 954" transform="translate(58.908)">
      <g id="Group_953" data-name="Group 953" transform="translate(0)">
        <path id="Path_4590" data-name="Path 4590" d="M98.921,34.738h-8.7l.587,2.715a3.111,3.111,0,0,1,.031,1.008h6.217V82.345H62.628V38.461h6.219a3.137,3.137,0,0,1,.032-1.012l.587-2.711h-8.7a1.86,1.86,0,0,0-1.86,1.862V84.207a1.861,1.861,0,0,0,1.86,1.862H98.921a1.863,1.863,0,0,0,1.862-1.862V36.6A1.862,1.862,0,0,0,98.921,34.738Z" transform="translate(-58.908 -30.784)" fill="#fff"/>
        <path id="Path_4591" data-name="Path 4591" d="M242.08,152.949H229.365a1.861,1.861,0,1,0,0,3.722H242.08a1.861,1.861,0,1,0,0-3.722Z" transform="translate(-208.312 -135.539)" fill="#fff"/>
        <path id="Path_4592" data-name="Path 4592" d="M242.08,253.254H229.365a1.862,1.862,0,0,0,0,3.723H242.08a1.862,1.862,0,0,0,0-3.723Z" transform="translate(-208.312 -224.427)" fill="#fff"/>
        <path id="Path_4593" data-name="Path 4593" d="M114.406,116.851a1.863,1.863,0,0,0-.224,2.623l2.715,3.218a1.858,1.858,0,0,0,1.422.661c.045,0,.09,0,.137-.005a1.86,1.86,0,0,0,1.446-.879l4.885-7.908a1.86,1.86,0,0,0-3.165-1.955l-3.536,5.722-1.059-1.253A1.858,1.858,0,0,0,114.406,116.851Z" transform="translate(-107.502 -99.003)" fill="#fff"/>
        <path id="Path_4594" data-name="Path 4594" d="M136.978,245.094a2.791,2.791,0,1,0,2.791,2.791A2.792,2.792,0,0,0,136.978,245.094Z" transform="translate(-125.616 -217.196)" fill="#fff"/>
        <path id="Path_4595" data-name="Path 4595" d="M242.08,351.359H229.365a1.861,1.861,0,1,0,0,3.722H242.08a1.861,1.861,0,1,0,0-3.722Z" transform="translate(-208.312 -311.365)" fill="#fff"/>
        <path id="Path_4596" data-name="Path 4596" d="M136.978,343.2a2.791,2.791,0,1,0,2.791,2.791A2.792,2.792,0,0,0,136.978,343.2Z" transform="translate(-125.616 -304.134)" fill="#fff"/>
        <path id="Path_4597" data-name="Path 4597" d="M163.521,8.607h15.791a1.277,1.277,0,0,0,1.249-1.549l-1.307-6.05A1.279,1.279,0,0,0,178.005,0H164.83a1.28,1.28,0,0,0-1.249,1.008l-1.309,6.05a1.291,1.291,0,0,0,.256,1.073A1.274,1.274,0,0,0,163.521,8.607Z" transform="translate(-150.482)" fill="#fff"/>
      </g>
    </g>
  </g>
</svg>
