<svg xmlns="http://www.w3.org/2000/svg" width="54.997" height="56.6" viewBox="0 0 54.997 56.6">
  <g id="dreaming-in-cloud" transform="translate(-14.051)">
    <circle id="Ellipse_4" data-name="Ellipse 4" cx="5.618" cy="5.618" r="5.618" transform="translate(46.988 39.689)" fill="#fff"/>
    <circle id="Ellipse_5" data-name="Ellipse 5" cx="4.089" cy="4.089" r="4.089" transform="translate(60.87 48.421)" fill="#fff"/>
    <path id="Path_4602" data-name="Path 4602" d="M67.691,23.549a8.62,8.62,0,0,0-6.867-8.435,1.163,1.163,0,0,1-.93-1A16.087,16.087,0,0,0,29.21,9.593a1.171,1.171,0,0,1-1.346.662,11.217,11.217,0,0,0-2.789-.331,11.121,11.121,0,0,0-6.268,20.241,7.658,7.658,0,0,0,10.8,3.371,1.168,1.168,0,0,1,1.608.416A11.452,11.452,0,0,0,49.565,36a1.179,1.179,0,0,1,1.517-.165,5.677,5.677,0,0,0,8.549-3.011,1.156,1.156,0,0,1,.9-.787A8.608,8.608,0,0,0,67.691,23.549Z" fill="#fff"/>
  </g>
</svg>
