<svg xmlns="http://www.w3.org/2000/svg" width="38.571" height="57.387" viewBox="0 0 38.571 57.387">
  <g id="hand-holding-up-a-flag" transform="translate(0)">
    <g id="Group_1" data-name="Group 1">
      <path id="Path_5" data-name="Path 5" d="M95.2,146.274a4.706,4.706,0,0,0,2.16-3.821c-.028-2.509-1.764-3.185-3.874-3.168l-10.546,0c-.465-1.025-.933-2.9-2.279-3.971-2.4-1.9-4.4-1.026-5.9-.126-3.406,2.033-7.256,6.291-9.6,7.081a18.907,18.907,0,0,1-6.37.718v14.672c5.973,0,9.621,2.1,12.662,3.347a32.255,32.255,0,0,0,14.231,2.684,5.619,5.619,0,0,0,5.806-5.309,4.342,4.342,0,0,0,2.656-2.455,3.9,3.9,0,0,0,.241-1.377,5.572,5.572,0,0,0-.425-2.051,4.14,4.14,0,0,0,2.193-2.6,3.939,3.939,0,0,0,.112-.924C96.294,146.8,95.2,146.274,95.2,146.274Z" transform="translate(-58.792 -112.708)" fill="#fff"/>
      <path id="Path_6" data-name="Path 6" d="M226.351,333.57h-3.423v3.207a.8.8,0,0,0,.8.8h1.824a.8.8,0,0,0,.8-.8Z" transform="translate(-196.662 -280.191)" fill="#fff"/>
      <path id="Path_7" data-name="Path 7" d="M129.348,0h-1.823a.8.8,0,0,0-.8.8v.707a9.872,9.872,0,0,1-2.549.318,25.013,25.013,0,0,1-5.495-.846,25.716,25.716,0,0,0-5.708-.87,10.323,10.323,0,0,0-4.336.9.389.389,0,0,0-.239.346.387.387,0,0,0,.233.349A18.935,18.935,0,0,1,114.5,6.746a35.249,35.249,0,0,0-6.043,6.894.361.361,0,0,0,.05.467.465.465,0,0,0,.511.085,9.406,9.406,0,0,1,3.951-.817,25.022,25.022,0,0,1,5.5.846,25.713,25.713,0,0,0,5.708.87,10.914,10.914,0,0,0,2.549-.291v9.36h3.423V.8A.8.8,0,0,0,129.348,0Z" transform="translate(-100.459)" fill="#fff"/>
    </g>
  </g>
</svg>
