<?xml version="1.0" encoding="utf-8"?>
<!-- Generator: Adobe Illustrator 23.0.3, SVG Export Plug-In . SVG Version: 6.00 Build 0)  -->
<svg version="1.1" id="Layer_1" xmlns="http://www.w3.org/2000/svg" xmlns:xlink="http://www.w3.org/1999/xlink" x="0px" y="0px"
	 viewBox="0 0 512 512" style="enable-background:new 0 0 512 512;" xml:space="preserve">
<style type="text/css">
	.st0{fill:#FFFFFF;}
</style>
<path class="st0" d="M471.8,185c-55.2-39.3-100.6-4.8-164.3-35.3c-54.8-26.2-40.1-82.5-96.1-118.9c-29.3-19-74.7-23.2-106.4-8.3
	C6.1,69-62.3,349.4,88,456.3c109.4,77.8,299.1,38.4,376.8-53c9.7-11.3,46.8-55.1,47.7-115.4C512.7,275.1,513.6,214.8,471.8,185z
	 M373.3,279.9l-3,3.3c-4.3,4.8-10.1,6.7-12.8,4.3c-2.7-2.4-5-4.3-5-4.3V387c0,6.5-5.2,11.7-11.7,11.7h-44.4c-6.5,0-11.1-5.2-11-11.7
	v-73.6H232V387c0,6.5-5.2,11.7-11.7,11.7h-41.9c-6.5,0-11.7-5.2-11.7-11.7V281.7l-8,7.2c-4.4,4-11.7,3.4-16.1-1.2l-2.7-2.8
	c-4.5-4.7-4.2-12,0.5-16.3l107.4-98.5c4.8-4.4,12.5-4.5,17.4-0.2l107.1,93.7C377.2,267.8,377.6,275.1,373.3,279.9z"/>
</svg>
