<svg xmlns="http://www.w3.org/2000/svg" width="43.016" height="42.994" viewBox="0 0 43.016 42.994">
  <path id="refer" d="M33.923,12.428A12.428,12.428,0,1,0,14.464,22.669,21.53,21.53,0,0,0,0,42.992H3.358A18.158,18.158,0,0,1,21.5,24.855,12.442,12.442,0,0,0,33.923,12.428ZM21.5,21.5a9.069,9.069,0,1,1,9.069-9.069A9.079,9.079,0,0,1,21.5,21.5Zm21.52,9.4-7.905,7.905-2.375-2.375L36.67,32.5H33.757a7.314,7.314,0,0,0-7.3,7.3l0,3.2-3.359,0,0-3.2A10.678,10.678,0,0,1,33.757,29.137H36.5l-3.767-3.767L35.111,23Zm0,0" transform="translate(0)" fill="#fff"/>
</svg>
