<svg xmlns="http://www.w3.org/2000/svg" width="39.99" height="55.972" viewBox="0 0 39.99 55.972">
  <g id="Solution" transform="translate(-12 -4.028)">
    <path id="Path_4566" data-name="Path 4566" d="M17.127,24a4,4,0,1,1,7.746,0H31V16.23a1,1,0,0,1,1.671-.741A1.98,1.98,0,0,0,34,16a2,2,0,1,0,0-4,1.98,1.98,0,0,0-1.329.511A1,1,0,0,1,31,11.77V4.028A19.991,19.991,0,0,0,12,24Z" fill="#fff"/>
    <rect id="Rectangle_769" data-name="Rectangle 769" width="20" height="6" rx="1" transform="translate(22 49)" fill="#fff"/>
    <path id="Path_4567" data-name="Path 4567" d="M37,57H27v2a1,1,0,0,0,1,1h8a1,1,0,0,0,1-1Z" fill="#fff"/>
    <path id="Path_4568" data-name="Path 4568" d="M21.589,41.08A7,7,0,0,1,25,47h6V39.873a4,4,0,1,1,0-7.746V26H23.23a1,1,0,0,1-.741-1.671A1.979,1.979,0,0,0,23,23a2,2,0,0,0-4,0,1.979,1.979,0,0,0,.511,1.329A1,1,0,0,1,18.77,26H12.108a19.844,19.844,0,0,0,9.481,15.08Z" fill="#fff"/>
    <path id="Path_4569" data-name="Path 4569" d="M51.975,22.988h0A20.167,20.167,0,0,0,33.131,4.031H33v6.1a4,4,0,1,1,0,7.746V24h7.77a1,1,0,0,1,.741,1.671A1.979,1.979,0,0,0,41,27a2,2,0,0,0,4,0,1.979,1.979,0,0,0-.511-1.329A1,1,0,0,1,45.23,24h6.76C51.99,23.663,51.991,23.327,51.975,22.988Z" fill="#fff"/>
    <path id="Path_4570" data-name="Path 4570" d="M46.873,26a4,4,0,1,1-7.746,0H33v7.77a1,1,0,0,1-1.671.741A1.98,1.98,0,0,0,30,34a2,2,0,0,0,0,4,1.98,1.98,0,0,0,1.329-.511A1,1,0,0,1,33,38.23V47h6a7.03,7.03,0,0,1,3.428-5.93A20.014,20.014,0,0,0,51.89,26Z" fill="#fff"/>
  </g>
</svg>
