<svg id="target-scope" xmlns="http://www.w3.org/2000/svg" width="51.288" height="51.288" viewBox="0 0 51.288 51.288">
  <g id="Group_944" data-name="Group 944" transform="translate(0)">
    <path id="Path_4559" data-name="Path 4559" d="M88.09,215.3a1.564,1.564,0,1,1-3.128,0v-1.354H83.4V215.3a1.564,1.564,0,1,1-3.128,0v-1.354H76.621a16.047,16.047,0,0,0,14.335,14v-3.569H89.34a1.564,1.564,0,1,1,0-3.128h1.616V219.68H89.34a1.564,1.564,0,0,1,0-3.128h1.616v-2.606H88.09Z" transform="translate(-66.877 -186.737)" fill="#fff"/>
    <path id="Path_4560" data-name="Path 4560" d="M224.625,215.3a1.564,1.564,0,1,1-3.128,0v-1.354h-1.564V215.3a1.564,1.564,0,0,1-3.128,0v-1.354h-2.867v2.606h1.616a1.564,1.564,0,1,1,0,3.128h-1.616v1.564h1.616a1.564,1.564,0,1,1,0,3.128h-1.616v3.569a16.051,16.051,0,0,0,14.335-14h-3.649Z" transform="translate(-186.731 -186.738)" fill="#fff"/>
    <path id="Path_4561" data-name="Path 4561" d="M76.054,87.925h3.721V86.048a1.564,1.564,0,1,1,3.128,0v1.877h1.564V86.048a1.564,1.564,0,0,1,3.128,0v1.877h2.867V84.8H88.846a1.564,1.564,0,0,1,0-3.128h1.616V80.105H88.846a1.564,1.564,0,0,1,0-3.128h1.616v-3.83A16.042,16.042,0,0,0,76.054,87.925Z" transform="translate(-66.382 -63.845)" fill="#fff"/>
    <path id="Path_4562" data-name="Path 4562" d="M213.938,73.142v3.83h1.616a1.564,1.564,0,1,1,0,3.128h-1.616v1.564h1.616a1.564,1.564,0,1,1,0,3.128h-1.616V87.92H216.8V86.043a1.564,1.564,0,1,1,3.128,0V87.92H221.5V86.043a1.564,1.564,0,1,1,3.128,0V87.92h3.721A16.044,16.044,0,0,0,213.938,73.142Z" transform="translate(-186.731 -63.84)" fill="#fff"/>
    <path id="Path_4563" data-name="Path 4563" d="M25.644,0A25.644,25.644,0,1,0,51.288,25.644,25.673,25.673,0,0,0,25.644,0ZM48.712,27.208H44.7a19.187,19.187,0,0,1-17.5,17.135v4.37a1.564,1.564,0,0,1-3.128,0v-4.37a19.188,19.188,0,0,1-17.5-17.135H2.575a1.564,1.564,0,0,1,0-3.128h3.95A19.182,19.182,0,0,1,24.08,6.163V2.576a1.564,1.564,0,0,1,3.128,0V6.163A19.182,19.182,0,0,1,44.763,24.08h3.95a1.564,1.564,0,1,1,0,3.128Z" transform="translate(0)" fill="#fff"/>
  </g>
</svg>
