<svg xmlns="http://www.w3.org/2000/svg" width="55.83" height="52.342" viewBox="0 0 55.83 52.342">
  <g id="timeline" transform="translate(0 -15.995)">
    <path id="Path_4564" data-name="Path 4564" d="M55.352,62.273,52.081,59a1.636,1.636,0,0,0-2.313,2.313l.479.479h-4.62a4.93,4.93,0,0,0-2.99-2.99V47.576c1.956-2.906,6.543-10.072,6.543-13.589a8.178,8.178,0,1,0-16.357,0c0,3.517,4.587,10.683,6.543,13.589V58.8a4.93,4.93,0,0,0-2.99,2.99H29.27a4.93,4.93,0,0,0-2.99-2.99V37.762c1.955-2.9,6.543-10.072,6.543-13.589a8.178,8.178,0,0,0-16.357,0c0,3.517,4.588,10.684,6.543,13.589V58.8a4.93,4.93,0,0,0-2.99,2.99H12.8a4.93,4.93,0,0,0-2.99-2.99V54.119c1.955-2.9,6.543-10.072,6.543-13.589A8.178,8.178,0,0,0,0,40.53c0,3.517,4.588,10.684,6.543,13.589V58.8a4.93,4.93,0,0,0-2.99,2.99H1.636a1.636,1.636,0,0,0,0,3.271H3.553a4.906,4.906,0,0,0,9.251,0h7.215a4.906,4.906,0,0,0,9.251,0h7.106a4.906,4.906,0,0,0,9.251,0h4.62l-.479.479a1.636,1.636,0,1,0,2.313,2.313l3.271-3.271a1.639,1.639,0,0,0,0-2.313ZM36.094,33.987a4.907,4.907,0,1,1,9.814,0c0,1.786-2.553,6.449-4.907,10.128C38.647,40.438,36.094,35.776,36.094,33.987ZM19.737,24.173a4.907,4.907,0,1,1,9.814,0c0,1.786-2.553,6.449-4.907,10.128C22.29,30.624,19.737,25.962,19.737,24.173ZM3.271,40.53a4.907,4.907,0,0,1,9.814,0c0,1.786-2.553,6.449-4.907,10.128C5.824,46.979,3.271,42.317,3.271,40.53ZM8.178,65.065A1.636,1.636,0,1,1,9.814,63.43,1.638,1.638,0,0,1,8.178,65.065Zm16.466,0a1.636,1.636,0,0,1,0-3.271h0a1.636,1.636,0,0,1,0,3.271Zm16.357,0a1.638,1.638,0,0,1-1.636-1.635h0A1.636,1.636,0,1,1,41,65.065Z" fill="#fff"/>
    <ellipse id="Ellipse_1" data-name="Ellipse 1" cx="1.5" cy="2" rx="1.5" ry="2" transform="translate(22.92 22.166)" fill="#fff"/>
    <circle id="Ellipse_2" data-name="Ellipse 2" cx="1.5" cy="1.5" r="1.5" transform="translate(6.92 39.166)" fill="#fff"/>
    <ellipse id="Ellipse_3" data-name="Ellipse 3" cx="2" cy="1" rx="2" ry="1" transform="translate(38.92 33.166)" fill="#fff"/>
  </g>
</svg>
