<?xml version="1.0" encoding="utf-8"?>
<!-- Generator: Adobe Illustrator 23.0.3, SVG Export Plug-In . SVG Version: 6.00 Build 0)  -->
<svg version="1.1" id="Layer_1" xmlns="http://www.w3.org/2000/svg" xmlns:xlink="http://www.w3.org/1999/xlink" x="0px" y="0px"
	 viewBox="0 0 512 512" style="enable-background:new 0 0 512 512;" xml:space="preserve">
<style type="text/css">
	.st0{fill:#FFFFFF;}
</style>
<g id="surface1">
	<path class="st0" d="M352.4,71.6V0H184.2c-21.9,0-39.4,18-39.4,39.9v335.5c0,21.9,17.6,39.9,39.4,39.9h240.8
		c21.9,0,39.4-18,39.4-39.9V117.6H399C373.5,117.6,352.4,97,352.4,71.6z M233.9,205.6l64.4-69.1c1.6-1.8,4-2.7,6.5-2.7
		s4.7,1,6.4,2.7l64.3,69.1c3.3,3.5,3.1,9.1-0.4,12.4c-1.6,1.5-4,2.3-6,2.3c-2.3,0-4.8-1-6.6-2.7l-49.4-52.7v125.6
		c0,4.8-4,8.8-8.8,8.8c-4.8,0-8.8-4-8.8-8.8V164.8l-48.8,52.7c-3.3,3.5-8.7,3.7-12.3,0.4C230.6,214.7,230.6,209.2,233.9,205.6z
		 M403.9,353.8c0,4.8-4,8.8-8.8,8.8H214.2c-4.8,0-8.8-4-8.8-8.8c0-4.8,4-8.8,8.8-8.8h181C400,345,403.9,349,403.9,353.8z"/>
	<path class="st0" d="M78.9,423.8v-326C60.2,101.4,47,117.5,47,136.6v335.5C47,494,64.6,512,86.4,512h240.8
		c18.8,0,34.5-13.2,38.6-30.8h-230C104.4,481.2,78.9,455.3,78.9,423.8z"/>
	<path class="st0" d="M127.2,375.4V49.7c-17.6,4-30.8,19.8-30.8,38.6v335.5c0,21.9,17.6,39.9,39.4,39.9h240.8
		c18.8,0,34.5-13.2,38.6-30.8H184.2C152.7,432.9,127.2,407,127.2,375.4z"/>
	<path class="st0" d="M399,100H453L370,13.5v58.1C370,87.3,383.2,100,399,100z"/>
</g>
</svg>
