<svg xmlns="http://www.w3.org/2000/svg" width="26" height="26" viewBox="0 0 26 26">
  <g id="Group_943" data-name="Group 943" transform="translate(-1089 -43)">
    <rect id="Rectangle_756" data-name="Rectangle 756" width="26" height="26" rx="13" transform="translate(1089 43)" fill="#172b4d"/>
    <g id="user" transform="translate(1096 49)">
      <g id="Group_942" data-name="Group 942" transform="translate(0)">
        <path id="Path_4558" data-name="Path 4558" d="M56.083,6.247a3.516,3.516,0,1,1,4.421,0,6.432,6.432,0,0,1,3.213,2.573.586.586,0,0,1-.985.634A5.274,5.274,0,0,0,53.02,12.3v1.523h5.273a.586.586,0,0,1,0,1.172H52.434a.586.586,0,0,1-.586-.586V12.3A6.447,6.447,0,0,1,56.083,6.247Zm2.211-.388A2.344,2.344,0,1,0,55.95,3.516,2.346,2.346,0,0,0,58.294,5.859Z" transform="translate(-51.849)" fill="#fff"/>
      </g>
    </g>
  </g>
</svg>
