<?xml version="1.0" encoding="utf-8"?>
<!-- Generator: Adobe Illustrator 23.0.3, SVG Export Plug-In . SVG Version: 6.00 Build 0)  -->
<svg version="1.1" id="security-safe-box" xmlns="http://www.w3.org/2000/svg" xmlns:xlink="http://www.w3.org/1999/xlink" x="0px"
	 y="0px" viewBox="0 0 35.6 35.6" style="enable-background:new 0 0 35.6 35.6;" xml:space="preserve">
<style type="text/css">
	.st0{fill:#FFFFFF;}
</style>
<g id="Group_941">
	<path id="Path_4442" class="st0" d="M35.6,0H0v35.6h35.6V0z M32,31.9H3.6V3.4H32V31.9z"/>
	<path id="Path_4443" class="st0" d="M30.7,4.7H4.9v26h26v-26H30.7z M22.8,24.6c-3.7,0-6.6-3-6.6-6.6s3-6.6,6.6-6.6s6.6,3,6.6,6.6
		l0,0C29.4,21.6,26.5,24.6,22.8,24.6z"/>
	<path id="Path_4444" class="st0" d="M22.8,11.9c-3.3,0-6.1,2.7-6.1,6.1s2.7,6.1,6.1,6.1c3.3,0,6.1-2.7,6.1-6.1
		C28.8,14.6,26.1,12,22.8,11.9z M22.8,22.5c-2.5,0-4.5-2-4.5-4.5s2-4.5,4.5-4.5c1.3,0,2.6,0.6,3.4,1.5h-0.1l-3.3,1.3
		c-0.8,0.4-1.2,1.3-0.8,2c0.4,0.8,1.3,1.2,2,0.8l3.3-1.3l0,0l0,0C27.3,20.4,25.3,22.5,22.8,22.5L22.8,22.5z"/>
</g>
</svg>
